<?xml version="1.0" encoding="utf-8"?>
<!-- Generator: Adobe Illustrator 25.0.1, SVG Export Plug-In . SVG Version: 6.00 Build 0)  -->
<svg version="1.1" xmlns="http://www.w3.org/2000/svg" xmlns:xlink="http://www.w3.org/1999/xlink" x="0px" y="0px" width="425.2px"
	 height="206.9px" viewBox="0 0 425.2 206.9" style="enable-background:new 0 0 425.2 206.9;" xml:space="preserve">
<style type="text/css">
	.st0{display:none;fill:#005A6A;}
	.st1{fill:#FFFFFF;}
</style>
<g id="Layer_1">
	<rect y="-39.2" class="st0" width="425.2" height="283.5"/>
	<g>
		<g>
			<g>
				<g>
					<path class="st1" d="M35.3,125.5c4.3,2.3,7.6,5.4,9.9,9.5c2.3,4.1,3.5,8.8,3.5,14.2c0,5.3-1.2,10-3.5,14.1
						c-2.3,4.1-5.7,7.3-10,9.6c-4.3,2.3-9.3,3.4-14.9,3.4H0v-54.2h20.3C26,122.1,31,123.2,35.3,125.5z M31.1,160.7
						c2.8-2.7,4.2-6.6,4.2-11.6c0-5-1.4-8.9-4.2-11.7s-6.7-4.2-11.7-4.2h-6.3v31.5h6.3C24.4,164.8,28.3,163.5,31.1,160.7z"/>
				</g>
				<g>
					<path class="st1" d="M97.3,154c0-4.3-0.9-8.1-2.7-11.4c-1.8-3.2-4.4-5.7-7.6-7.5c-3.2-1.8-6.9-2.6-11.1-2.6
						c-4.3,0-8.1,0.9-11.4,2.7c-3.3,1.8-5.9,4.4-7.7,7.7c-1.8,3.3-2.8,7.3-2.8,11.7c0,4.5,0.9,8.4,2.8,11.7c1.9,3.3,4.4,5.9,7.7,7.7
						c3.3,1.8,7,2.7,11.3,2.7c3.5,0,6.7-0.6,9.5-1.9c2.8-1.3,5.2-3.1,7.1-5.3c1.7-2,2.9-4.3,3.7-6.8H81.8c-1.3,2.2-3.5,3.3-6.4,3.3
						c-2.2,0-4.1-0.7-5.6-2.1c-1.5-1.4-2.4-3.5-2.6-6.1h29.9C97.3,156.6,97.3,155.3,97.3,154z M67.3,150.5c0.4-2.4,1.3-4.2,2.8-5.5
						c1.5-1.3,3.4-1.9,5.6-1.9c2.3,0,4.2,0.7,5.8,2c1.6,1.3,2.3,3.1,2.3,5.4H67.3z"/>
				</g>
				<g>
					<path class="st1" d="M136.8,166.7h-20.2l-3.2,9.6H99.5l19.6-54.2h15.3l19.6,54.2h-14L136.8,166.7z M133.4,156.5l-6.7-19.8
						l-6.6,19.8H133.4z"/>
				</g>
				<g>
					<path class="st1" d="M184.3,134.4c2.3,1.2,4.1,2.9,5.3,4.9v-6.1h13.2v43c0,4-0.8,7.6-2.4,10.8c-1.6,3.2-4,5.8-7.2,7.7
						c-3.2,1.9-7.2,2.9-12,2.9c-6.4,0-11.6-1.5-15.5-4.5c-4-3-6.2-7.1-6.8-12.2h13c0.4,1.6,1.4,2.9,2.9,3.9c1.5,1,3.4,1.4,5.7,1.4
						c2.7,0,4.9-0.8,6.5-2.4c1.6-1.6,2.4-4.1,2.4-7.5v-6.1c-1.3,2-3.1,3.6-5.3,4.9c-2.3,1.3-4.9,1.9-8,1.9c-3.6,0-6.8-0.9-9.6-2.7
						c-2.9-1.8-5.2-4.4-6.8-7.8c-1.7-3.4-2.5-7.3-2.5-11.7c0-4.4,0.8-8.3,2.5-11.7c1.7-3.3,3.9-5.9,6.8-7.7c2.9-1.8,6.1-2.7,9.6-2.7
						C179.3,132.6,182,133.2,184.3,134.4z M186.8,146.9c-1.8-1.9-4.1-2.9-6.7-2.9c-2.6,0-4.9,0.9-6.7,2.8c-1.8,1.9-2.7,4.5-2.7,7.8
						c0,3.3,0.9,5.9,2.7,7.8c1.8,1.9,4.1,2.9,6.7,2.9c2.6,0,4.9-1,6.7-2.9c1.8-1.9,2.7-4.5,2.7-7.8
						C189.6,151.4,188.7,148.8,186.8,146.9z"/>
				</g>
				<g>
					<path class="st1" d="M220.6,174.2c-3.4-1.8-6-4.4-8-7.7c-1.9-3.3-2.9-7.3-2.9-11.7c0-4.4,1-8.3,2.9-11.7c2-3.4,4.6-6,8-7.8
						c3.4-1.8,7.2-2.7,11.4-2.7c4.2,0,8,0.9,11.4,2.7c3.4,1.8,6.1,4.4,8,7.8c2,3.4,2.9,7.3,2.9,11.7c0,4.4-1,8.3-3,11.7
						c-2,3.4-4.7,6-8.1,7.8c-3.4,1.8-7.2,2.7-11.5,2.7C227.7,176.9,224,176,220.6,174.2z M238.4,162.7c1.8-1.9,2.7-4.5,2.7-8
						c0-3.4-0.9-6.1-2.6-8c-1.7-1.9-3.8-2.8-6.4-2.8c-2.6,0-4.7,0.9-6.4,2.7c-1.7,1.8-2.5,4.5-2.5,8c0,3.4,0.8,6.1,2.5,8
						c1.7,1.9,3.8,2.8,6.3,2.8C234.5,165.4,236.6,164.5,238.4,162.7z"/>
				</g>
				<g>
					<path class="st1" d="M269,174.9c-2.9-1.3-5.2-3-6.9-5.3c-1.7-2.2-2.7-4.7-2.9-7.5h13c0.2,1.5,0.8,2.7,2.1,3.6
						c1.2,0.9,2.8,1.4,4.6,1.4c1.6,0,2.9-0.3,3.8-1c0.9-0.6,1.4-1.5,1.4-2.5c0-1.2-0.6-2.1-1.9-2.7c-1.3-0.6-3.4-1.2-6.3-2
						c-3.1-0.7-5.7-1.5-7.7-2.3c-2.1-0.8-3.8-2.1-5.3-3.8c-1.5-1.7-2.2-4.1-2.2-7c0-2.5,0.7-4.7,2-6.8c1.4-2,3.4-3.6,6-4.8
						c2.7-1.2,5.8-1.8,9.5-1.8c5.4,0,9.7,1.3,12.8,4c3.1,2.7,4.9,6.2,5.4,10.7h-12.2c-0.2-1.5-0.9-2.7-2-3.6
						c-1.1-0.9-2.6-1.3-4.4-1.3c-1.5,0-2.7,0.3-3.6,0.9c-0.8,0.6-1.2,1.4-1.2,2.4c0,1.2,0.7,2.2,2,2.8c1.3,0.6,3.4,1.2,6.1,1.9
						c3.2,0.8,5.8,1.6,7.8,2.4c2,0.8,3.8,2.1,5.3,3.9c1.5,1.8,2.3,4.2,2.4,7.1c0,2.5-0.7,4.8-2.1,6.8c-1.4,2-3.4,3.5-6.1,4.7
						c-2.7,1.1-5.7,1.7-9.2,1.7C275.3,176.9,272,176.2,269,174.9z"/>
				</g>
				<g>
					<path class="st1" d="M328.6,165.1v11.2h-6.7c-4.8,0-8.5-1.2-11.2-3.5c-2.7-2.3-4-6.2-4-11.5v-17.1h-5.2v-11h5.2v-10.5h13.2
						v10.5h8.6v11h-8.6v17.3c0,1.3,0.3,2.2,0.9,2.8c0.6,0.6,1.6,0.8,3.1,0.8H328.6z"/>
				</g>
				<g>
					<path class="st1" d="M336.9,126.7c-1.5-1.4-2.2-3-2.2-5.1c0-2.1,0.7-3.8,2.2-5.1c1.5-1.4,3.4-2,5.7-2c2.3,0,4.1,0.7,5.6,2
						c1.5,1.4,2.2,3.1,2.2,5.1c0,2-0.7,3.7-2.2,5.1c-1.5,1.4-3.3,2-5.6,2C340.3,128.7,338.4,128,336.9,126.7z M349.2,133.2v43.1H336
						v-43.1H349.2z"/>
				</g>
				<g>
					<path class="st1" d="M397.1,137.6c3,3.3,4.5,7.8,4.5,13.5v25.2h-13.1v-23.4c0-2.9-0.7-5.1-2.2-6.7c-1.5-1.6-3.5-2.4-6-2.4
						s-4.5,0.8-6,2.4c-1.5,1.6-2.2,3.8-2.2,6.7v23.4h-13.2v-43.1h13.2v5.7c1.3-1.9,3.1-3.4,5.4-4.5c2.3-1.1,4.8-1.7,7.6-1.7
						C390,132.7,394,134.4,397.1,137.6z"/>
				</g>
				<g>
					<path class="st1" d="M411.7,126.7c-1.5-1.4-2.2-3-2.2-5.1c0-2.1,0.7-3.8,2.2-5.1c1.5-1.4,3.4-2,5.7-2c2.3,0,4.1,0.7,5.6,2
						c1.5,1.4,2.2,3.1,2.2,5.1c0,2-0.7,3.7-2.2,5.1c-1.5,1.4-3.3,2-5.6,2C415.1,128.7,413.2,128,411.7,126.7z M424,133.2v43.1h-13.2
						v-43.1H424z"/>
				</g>
			</g>
		</g>
	</g>
	<g>
		<g>
			<path class="st1" d="M213,187.9c0.7-1.2,1.6-2.1,2.8-2.8c1.2-0.7,2.5-1,4-1c1.7,0,3.2,0.4,4.5,1.3c1.3,0.9,2.2,2.1,2.7,3.7h-3.6
				c-0.4-0.7-0.9-1.3-1.5-1.7c-0.6-0.4-1.4-0.6-2.2-0.6c-0.9,0-1.7,0.2-2.4,0.6c-0.7,0.4-1.2,1-1.6,1.8s-0.6,1.7-0.6,2.7
				c0,1,0.2,1.9,0.6,2.7c0.4,0.8,0.9,1.4,1.6,1.8c0.7,0.4,1.5,0.6,2.4,0.6c0.8,0,1.6-0.2,2.2-0.6c0.6-0.4,1.1-0.9,1.5-1.7h3.6
				c-0.5,1.6-1.4,2.8-2.7,3.7c-1.3,0.9-2.8,1.3-4.6,1.3c-1.5,0-2.8-0.3-4-1c-1.2-0.7-2.1-1.6-2.8-2.8c-0.7-1.2-1-2.6-1-4.1
				C211.9,190.5,212.3,189.1,213,187.9"/>
			<path class="st1" d="M244.9,196.5c0.7-0.4,1.3-1,1.7-1.8c0.4-0.8,0.6-1.7,0.6-2.7c0-1-0.2-1.9-0.6-2.7c-0.4-0.8-1-1.4-1.7-1.8
				c-0.7-0.4-1.5-0.6-2.5-0.6c-0.9,0-1.8,0.2-2.5,0.6c-0.7,0.4-1.3,1-1.7,1.8c-0.4,0.8-0.6,1.7-0.6,2.7c0,1,0.2,1.9,0.6,2.7
				c0.4,0.8,1,1.4,1.7,1.8c0.7,0.4,1.5,0.6,2.5,0.6C243.4,197.1,244.2,196.9,244.9,196.5 M238.4,198.9c-1.2-0.7-2.2-1.6-2.9-2.8
				s-1.1-2.6-1.1-4.1c0-1.5,0.4-2.9,1.1-4.1c0.7-1.2,1.7-2.1,2.9-2.8c1.2-0.7,2.5-1,4-1c1.5,0,2.8,0.3,4,1c1.2,0.7,2.2,1.6,2.9,2.8
				c0.7,1.2,1.1,2.6,1.1,4.1c0,1.5-0.4,2.9-1.1,4.1c-0.7,1.2-1.7,2.1-2.9,2.8c-1.2,0.7-2.5,1-4,1C241,199.9,239.7,199.6,238.4,198.9
				"/>
		</g>
		<polygon class="st1" points="258.2,184.3 258.2,199.7 266.4,199.7 266.4,197.3 261.3,197.3 261.3,184.3 		"/>
		<polygon class="st1" points="273.9,184.3 273.9,199.7 282.1,199.7 282.1,197.3 277,197.3 277,184.3 		"/>
		<polygon class="st1" points="289.7,184.2 289.7,199.7 298.6,199.7 298.6,197.2 292.8,197.2 292.8,193.1 298,193.1 298,190.6 
			292.8,190.6 292.8,186.8 298.6,186.8 298.6,184.2 		"/>
		<g>
			<path class="st1" d="M307.3,187.9c0.7-1.2,1.6-2.1,2.8-2.8c1.2-0.7,2.5-1,4-1c1.7,0,3.2,0.4,4.5,1.3c1.3,0.9,2.2,2.1,2.7,3.7
				h-3.6c-0.4-0.7-0.9-1.3-1.5-1.7c-0.6-0.4-1.4-0.6-2.2-0.6c-0.9,0-1.7,0.2-2.4,0.6c-0.7,0.4-1.2,1-1.6,1.8s-0.6,1.7-0.6,2.7
				c0,1,0.2,1.9,0.6,2.7c0.4,0.8,0.9,1.4,1.6,1.8c0.7,0.4,1.5,0.6,2.4,0.6c0.8,0,1.6-0.2,2.2-0.6c0.6-0.4,1.1-0.9,1.5-1.7h3.6
				c-0.5,1.6-1.4,2.8-2.7,3.7c-1.3,0.9-2.8,1.3-4.6,1.3c-1.5,0-2.8-0.3-4-1c-1.2-0.7-2.1-1.6-2.8-2.8c-0.7-1.2-1-2.6-1-4.1
				C306.2,190.5,306.6,189.1,307.3,187.9"/>
		</g>
		<polygon class="st1" points="328.8,184.3 328.8,186.8 332.9,186.8 332.9,199.7 336,199.7 336,186.8 340.1,186.8 340.1,184.3 		"/>
		<rect x="347.9" y="184.3" class="st1" width="3.1" height="15.5"/>
		<g>
			<path class="st1" d="M367.6,196.7c0.4-0.4,0.6-0.9,0.6-1.5c0-0.7-0.2-1.2-0.7-1.6c-0.4-0.4-1-0.6-1.8-0.6h-3.1v4.2h3.1
				C366.6,197.2,367.2,197,367.6,196.7 M362.7,190.6h2.8c0.7,0,1.3-0.2,1.7-0.5c0.4-0.3,0.6-0.8,0.6-1.4c0-0.6-0.2-1.1-0.6-1.4
				c-0.4-0.3-1-0.5-1.7-0.5h-2.8V190.6z M370.6,193.1c0.6,0.7,0.8,1.5,0.8,2.4c0,0.8-0.2,1.6-0.6,2.2c-0.4,0.6-1,1.1-1.8,1.5
				s-1.7,0.5-2.7,0.5h-6.7v-15.5h6.4c1,0,2,0.2,2.7,0.5s1.3,0.8,1.7,1.4c0.4,0.6,0.6,1.3,0.6,2.1c0,0.9-0.2,1.7-0.7,2.3
				c-0.5,0.6-1.1,1-1.9,1.3C369.3,192,370,192.4,370.6,193.1"/>
		</g>
		<polygon class="st1" points="379.4,184.3 379.4,199.7 387.6,199.7 387.6,197.3 382.5,197.3 382.5,184.3 		"/>
		<polygon class="st1" points="395.2,184.2 395.2,199.7 404.1,199.7 404.1,197.2 398.3,197.2 398.3,193.1 403.5,193.1 403.5,190.6 
			398.3,190.6 398.3,186.8 404.1,186.8 404.1,184.2 		"/>
		<g>
			<path class="st1" d="M414.9,199.3c-0.9-0.4-1.5-0.9-2.1-1.6c-0.5-0.7-0.8-1.5-0.8-2.5h3.3c0,0.6,0.3,1.1,0.7,1.5
				c0.4,0.4,1,0.6,1.7,0.6c0.7,0,1.3-0.2,1.7-0.5c0.4-0.3,0.6-0.8,0.6-1.4c0-0.5-0.1-0.8-0.4-1.1c-0.3-0.3-0.6-0.5-1.1-0.7
				c-0.4-0.2-1-0.4-1.7-0.6c-1-0.3-1.8-0.6-2.5-0.9s-1.2-0.7-1.6-1.3c-0.5-0.6-0.7-1.4-0.7-2.3c0-0.9,0.2-1.7,0.7-2.4
				c0.5-0.7,1.1-1.2,1.9-1.6c0.8-0.4,1.8-0.5,2.8-0.5c1.6,0,2.9,0.4,3.9,1.2c1,0.8,1.5,1.9,1.7,3.2h-3.4c0-0.5-0.3-1-0.7-1.3
				c-0.4-0.3-1-0.5-1.7-0.5c-0.6,0-1.1,0.2-1.5,0.5c-0.4,0.3-0.5,0.8-0.5,1.4c0,0.4,0.1,0.8,0.4,1c0.3,0.3,0.6,0.5,1,0.7
				c0.4,0.2,1,0.4,1.7,0.6c1,0.3,1.8,0.6,2.5,0.9c0.6,0.3,1.2,0.7,1.6,1.3c0.5,0.6,0.7,1.4,0.7,2.3c0,0.8-0.2,1.6-0.6,2.3
				c-0.4,0.7-1.1,1.3-1.9,1.7c-0.8,0.4-1.8,0.6-2.9,0.6C416.8,199.9,415.8,199.7,414.9,199.3"/>
		</g>
	</g>
</g>
<g id="Isolation_Mode">
	<g>
		<path class="st1" d="M307.7,105.2c0-1.1,0.1-2.2,0.1-3.3v-0.5c0-1.1,0-2.2-0.1-3.3h-44.4c0.1,1.2,0.1,2.3,0.1,3.5
			c0,1.2-0.1,2.4-0.1,3.6H307.7z"/>
		<path class="st1" d="M304.1,75.5L260.7,85c0.8,2.2,1.4,4.5,1.8,6.9l43.3-9.4C305.4,80.1,304.8,77.8,304.1,75.5z"/>
		<path class="st1" d="M255.1,73.7c1.3,2,2.5,4,3.5,6.2L298.7,61c-1-2.1-2.1-4.2-3.3-6.3L255.1,73.7z"/>
		<path class="st1" d="M247.3,64.5c1.7,1.6,3.4,3.4,4.9,5.2l34.5-27.8c-1.5-1.8-3-3.6-4.7-5.4L247.3,64.5z"/>
		<path class="st1" d="M264.6,21.9l-26.7,35.6c2.1,1.2,4,2.5,5.9,4L270.4,26C268.5,24.6,266.6,23.2,264.6,21.9z"/>
		<path class="st1" d="M227.3,52.9c2.3,0.7,4.5,1.5,6.6,2.5l16.6-41.2c-2.2-0.9-4.4-1.8-6.6-2.6L227.3,52.9z"/>
		<path class="st1" d="M215.4,50.8c2.4,0.1,4.7,0.4,7,0.9L228,7.7c-2.3-0.4-4.7-0.7-7-0.9L215.4,50.8z"/>
		<path class="st1" d="M202.7,51.7c2.3-0.5,4.6-0.8,7-0.9l-5.5-44.1c-2.4,0.2-4.7,0.5-7,0.9L202.7,51.7z"/>
		<path class="st1" d="M191.3,55.5c2.1-1,4.4-1.8,6.6-2.5l-16.6-41.2c-2.2,0.8-4.4,1.6-6.6,2.6L191.3,55.5z"/>
		<path class="st1" d="M181.4,61.5c1.9-1.5,3.8-2.8,5.9-4l-26.7-35.6c-2,1.3-3.9,2.7-5.8,4.1L181.4,61.5z"/>
		<path class="st1" d="M138.5,41.9L173,69.7c1.5-1.8,3.1-3.6,4.9-5.2l-34.7-27.9C141.5,38.2,140,40,138.5,41.9z"/>
		<path class="st1" d="M166.6,79.9c1-2.2,2.2-4.2,3.5-6.2l-40.3-19c-1.2,2.1-2.3,4.2-3.3,6.3L166.6,79.9z"/>
		<path class="st1" d="M162.7,91.9c0.5-2.4,1.1-4.6,1.8-6.9l-43.5-9.5c-0.6,2.3-1.2,4.6-1.7,6.9L162.7,91.9z"/>
		<path class="st1" d="M161.7,101.6c0-1.2,0.1-2.4,0.1-3.5h-44.4c0,1.2-0.1,2.4-0.1,3.5c0,1.2,0,2.4,0.1,3.6h44.4
			C161.8,104,161.7,102.8,161.7,101.6z"/>
	</g>
</g>
</svg>
